# xmcd CD database file
#
# Track frame offsets:
#	180
#	10897
#	26675
#	37076
#	55676
#	63411
#	74090
#	88304
#	106890
#	117993
#	129107
#	140779
#	151298
#	159682
#	174390
#	184873
#	192919
#	206113
#	216134
#	230697
#
# Disc length: 3227 seconds
#
# Revision: 0
# Processed by: cddbd v1.5.2PL0 Copyright (c) Steve Scherf et al.
# Submitted via: Feurio! 1.68 - http://www.feurio.com
#
DISCID=2a0c9914
DTITLE=Various Artist - Echte Volksmusik CD3
DYEAR=1900
DGENRE=Volksmusik
TTITLE0=Familienmusik Bletzacher - Aufn Hinterkogl
TTITLE1=Kreuther Saitenquintett - Halbwalzer aus Südtirol
TTITLE2=Mittenwalder Klarinettenmusi - Fosnochtsmarsch
TTITLE3=Greilinger Sänger - Tölzer Gamsbock
TTITLE4=Familienmusik Bletzacher - Eiszapfen
TTITLE5=Hackbrettmusi Hans Gust - Wetzstoa Landler
TTITLE6=Gruber Zwoagsang - Jagasbua sog ma's
TTITLE7=Grassauer Musikanten - Wiesseer Landler
TTITLE8=Kreuher Saitenquintett - Bayrischer aus Kreuth
TTITLE9=Greilinger Sänger - Da Kaiser liabt sei Landl
TTITLE10=Grassauer Musikanten - Jodler in F
TTITLE11=Hackbrettmusi Hans Gust - Im Glockenstüberl
TTITLE12=Familienmusik Bletzacher - A Schians Büschei
TTITLE13=Greilinger Sänger - Zitheralm
TTITLE14=Mittenwalder Klarinettenmusi - Cäcilie Walzer
TTITLE15=Kreuther Saitenquintett - Kathrinen Polka
TTITLE16=Grassauer Musikanten - Landler in F
TTITLE17=Gruber Zwoagsang - S'Dirnd is kloa verweg'n
TTITLE18=Mittenwalder Klarinettenmusi - Landler 1 in F und B
TTITLE19=Hackbrettmusi Hans Gust - Herbstweis'
EXTD=
EXTT0=
EXTT1=
EXTT2=
EXTT3=
EXTT4=
EXTT5=
EXTT6=
EXTT7=
EXTT8=
EXTT9=
EXTT10=
EXTT11=
EXTT12=
EXTT13=
EXTT14=
EXTT15=
EXTT16=
EXTT17=
EXTT18=
EXTT19=
PLAYORDER=
